<svg viewBox="0 0 880 740" xmlns="http://www.w3.org/2000/svg" role="img" aria-labelledby="ttl desc" font-family="system-ui, -apple-system, sans-serif">
<title id="ttl">Temporal Integration — Holding Three Tensions Between Two Worlds</title>
<desc id="desc">A diagram showing the Newtonian body (left) with an arrow of time, and the Quantum Plane of Possibility (right) which is arrow-free. Three existential tensions stretch between them: certainty vs uncertainty, permanence vs impermanence, immortality vs mortality. Integration is embracing both ends of each tension.</desc>

<style>
  .h1 { font-size: 22px; font-weight: 700; fill: #1a1a1a; }
  .h2 { font-size: 15px; font-weight: 700; fill: #1a1a1a; }
  .h3 { font-size: 13px; font-weight: 600; fill: #1a1a1a; }
  .lbl { font-size: 12px; fill: #4a4a4a; }
  .sm  { font-size: 11px; fill: #6a6a6a; }
  .card { fill: #ffffff; stroke: #d3cec4; stroke-width: 1; }
  .ring { fill: none; stroke: #d3cec4; stroke-width: 1; }
</style>

<rect width="880" height="740" fill="#faf9f5"/>

<text x="440" y="32" text-anchor="middle" class="h1">Temporal Integration</text>
<text x="440" y="54" text-anchor="middle" class="lbl">Three existential tensions held between two worlds</text>

<rect x="30" y="80" width="240" height="460" rx="14" class="card"/>
<text x="150" y="110" text-anchor="middle" class="h2">NEWTONIAN BODY</text>
<text x="150" y="128" text-anchor="middle" class="sm">large objects · classical physics</text>

<g transform="translate(150,170)">
  <circle cx="0" cy="0" r="20" fill="none" stroke="#4a4a4a" stroke-width="2"/>
  <path d="M -26 22 Q 0 16 26 22 L 20 78 L -20 78 Z" fill="none" stroke="#4a4a4a" stroke-width="2"/>
</g>

<g transform="translate(60,290)">
  <text x="90" y="0" text-anchor="middle" class="h3">Arrow of time →</text>
  <line x1="20" y1="14" x2="160" y2="14" stroke="#c96442" stroke-width="2.5"/>
  <polygon points="160,8 174,14 160,20" fill="#c96442"/>
  <text x="20"  y="32" class="sm">past</text>
  <text x="90"  y="32" text-anchor="middle" class="sm">now</text>
  <text x="160" y="32" text-anchor="end" class="sm">future</text>
</g>

<g transform="translate(50,355)">
  <text x="0" y="0" class="h3">Properties</text>
  <text x="0" y="22" class="lbl">• certainty</text>
  <text x="0" y="42" class="lbl">• separation</text>
  <text x="0" y="62" class="lbl">• mortality</text>
  <text x="0" y="82" class="lbl">• directional change</text>
  <text x="0" y="102" class="lbl">• mass &amp; macro-states</text>
  <text x="0" y="122" class="lbl">• mind = brain only</text>
</g>

<rect x="610" y="80" width="240" height="460" rx="14" class="card"/>
<text x="730" y="110" text-anchor="middle" class="h2">PLANE OF POSSIBILITY</text>
<text x="730" y="128" text-anchor="middle" class="sm">quantum · arrow-free</text>

<g transform="translate(730,190)">
  <circle r="56" class="ring"/>
  <circle r="42" class="ring"/>
  <circle r="28" class="ring"/>
  <circle r="14" fill="#c96442" opacity="0.85"/>
  <text x="0" y="4" text-anchor="middle" font-size="11" font-weight="700" fill="#ffffff">∞</text>
</g>

<g transform="translate(640,290)">
  <text x="90" y="0" text-anchor="middle" class="h3">Arrow-free ∞</text>
  <path d="M 30 14 Q 90 -2 150 14 Q 90 30 30 14" fill="none" stroke="#c96442" stroke-width="2.5"/>
  <text x="90" y="36" text-anchor="middle" class="sm">no past · no future · only now</text>
</g>

<g transform="translate(630,355)">
  <text x="0" y="0" class="h3">Properties</text>
  <text x="0" y="22" class="lbl">• probability</text>
  <text x="0" y="42" class="lbl">• entanglement (non-locality)</text>
  <text x="0" y="62" class="lbl">• timeless awareness</text>
  <text x="0" y="82" class="lbl">• no directional change</text>
  <text x="0" y="102" class="lbl">• pure potential / micro-state</text>
  <text x="0" y="122" class="lbl">• mind &gt; brain</text>
</g>

<g>
  <g transform="translate(280,130)">
    <rect x="0" y="0" width="320" height="92" rx="10" fill="#f8f7f2" stroke="#d3cec4"/>
    <text x="160" y="22" text-anchor="middle" class="h3">Tension 1 · CERTAINTY ⟷ UNCERTAINTY</text>
    <text x="14"  y="48" class="sm">longing:</text>
    <text x="160" y="48" text-anchor="middle" class="lbl" font-weight="600">"I want to control what happens next."</text>
    <text x="14"  y="72" class="sm">reality:</text>
    <text x="160" y="72" text-anchor="middle" class="lbl">Everything always changes. Always.</text>
    <line x1="20" y1="84" x2="300" y2="84" stroke="#c96442" stroke-width="1" stroke-dasharray="3 3"/>
  </g>

  <g transform="translate(280,245)">
    <rect x="0" y="0" width="320" height="92" rx="10" fill="#f8f7f2" stroke="#d3cec4"/>
    <text x="160" y="22" text-anchor="middle" class="h3">Tension 2 · PERMANENCE ⟷ IMPERMANENCE</text>
    <text x="14"  y="48" class="sm">longing:</text>
    <text x="160" y="48" text-anchor="middle" class="lbl" font-weight="600">"I want this love / life to last forever."</text>
    <text x="14"  y="72" class="sm">reality:</text>
    <text x="160" y="72" text-anchor="middle" class="lbl">Everything is transient. Nothing stays.</text>
    <line x1="20" y1="84" x2="300" y2="84" stroke="#c96442" stroke-width="1" stroke-dasharray="3 3"/>
  </g>

  <g transform="translate(280,360)">
    <rect x="0" y="0" width="320" height="92" rx="10" fill="#f8f7f2" stroke="#d3cec4"/>
    <text x="160" y="22" text-anchor="middle" class="h3">Tension 3 · IMMORTALITY ⟷ MORTALITY</text>
    <text x="14"  y="48" class="sm">longing:</text>
    <text x="160" y="48" text-anchor="middle" class="lbl" font-weight="600">"I don't want to die."</text>
    <text x="14"  y="72" class="sm">reality:</text>
    <text x="160" y="72" text-anchor="middle" class="lbl">We come from possibility, return to it.</text>
    <line x1="20" y1="84" x2="300" y2="84" stroke="#c96442" stroke-width="1" stroke-dasharray="3 3"/>
  </g>
</g>

<g stroke="#d3cec4" stroke-width="1.2">
  <line x1="270" y1="176" x2="280" y2="176"/>
  <line x1="270" y1="291" x2="280" y2="291"/>
  <line x1="270" y1="406" x2="280" y2="406"/>
  <line x1="600" y1="176" x2="610" y2="176"/>
  <line x1="600" y1="291" x2="610" y2="291"/>
  <line x1="600" y1="406" x2="610" y2="406"/>
</g>

<g transform="translate(30,575)">
  <rect x="0" y="0" width="820" height="135" rx="12" fill="#c96442" opacity="0.08" stroke="#c96442"/>
  <text x="410" y="32" text-anchor="middle" class="h2" fill="#c96442">Integration ≠ ending the longing</text>
  <text x="410" y="60" text-anchor="middle" class="lbl">Integration = embracing BOTH the longing AND the reality of its opposite.</text>
  <text x="410" y="84" text-anchor="middle" class="sm">Keep the wish for permanence. Also accept impermanence. Hold them together. That is the harmonious life.</text>
  <text x="410" y="114" text-anchor="middle" class="sm" font-style="italic">"Get a big squeeze out of it while you're here." — John O'Donohue</text>
</g>

</svg>
